<svg width="42" height="37" viewBox="0 0 42 37" fill="none" xmlns="http://www.w3.org/2000/svg">
<path d="M1 17.25C0.585786 17.25 0.25 17.5858 0.25 18C0.25 18.4142 0.585786 18.75 1 18.75V17.25ZM41.5303 18.5303C41.8232 18.2374 41.8232 17.7626 41.5303 17.4697L36.7574 12.6967C36.4645 12.4038 35.9896 12.4038 35.6967 12.6967C35.4038 12.9896 35.4038 13.4645 35.6967 13.7574L39.9393 18L35.6967 22.2426C35.4038 22.5355 35.4038 23.0104 35.6967 23.3033C35.9896 23.5962 36.4645 23.5962 36.7574 23.3033L41.5303 18.5303ZM1 18V18.75H41V18V17.25H1V18Z" fill="#BFBFBF"/>
</svg>
