<svg width="24" height="24" viewBox="0 0 24 24" fill="none" xmlns="http://www.w3.org/2000/svg">
<path fill-rule="evenodd" clip-rule="evenodd" d="M11.9405 0.354127H12.0594C13.541 0.354105 14.7352 0.354083 15.6744 0.480357C16.6495 0.611462 17.4705 0.891926 18.1226 1.54401C18.9242 2.34565 19.1722 3.41473 19.2596 4.74101C19.525 4.75872 19.7743 4.78231 20.0077 4.81369C20.9828 4.94479 21.8038 5.22526 22.456 5.87734C23.108 6.52942 23.3885 7.35044 23.5196 8.32556C23.6458 9.26478 23.6458 10.4589 23.6458 11.9405V12.0594C23.6458 13.541 23.6458 14.7352 23.5196 15.6744C23.3885 16.6495 23.108 17.4705 22.456 18.1226C21.6543 18.9242 20.5852 19.1722 19.2589 19.2596C19.2412 19.525 19.2177 19.7743 19.1862 20.0077C19.0552 20.9828 18.7747 21.8038 18.1226 22.456C17.4705 23.108 16.6495 23.3885 15.6744 23.5196C14.7352 23.6458 13.541 23.6458 12.0594 23.6458H11.9405C10.4589 23.6458 9.26478 23.6458 8.32556 23.5196C7.35044 23.3885 6.52942 23.108 5.87734 22.456C5.22526 21.8038 4.94479 20.9828 4.81369 20.0077C4.78231 19.7743 4.75872 19.525 4.741 19.2596C3.41473 19.1722 2.34565 18.9242 1.54401 18.1226C0.891926 17.4705 0.611462 16.6495 0.480357 15.6744C0.354083 14.7352 0.354105 13.541 0.354127 12.0594V11.9405C0.354105 10.4589 0.354083 9.26478 0.480357 8.32556C0.611462 7.35044 0.891926 6.52942 1.54401 5.87734C2.19609 5.22526 3.01711 4.94479 3.99223 4.81369C4.22568 4.78231 4.47488 4.75872 4.74032 4.74101C4.82777 3.41473 5.07569 2.34565 5.87734 1.54401C6.52942 0.891926 7.35044 0.611462 8.32556 0.480357C9.26478 0.354083 10.4589 0.354105 11.9405 0.354127ZM6.37436 4.69066C6.76102 4.68745 7.17168 4.68745 7.60717 4.68746H16.3928C16.8283 4.68745 17.2388 4.68745 17.6256 4.69066C17.5368 3.58472 17.337 3.05652 16.9735 2.69305C16.6737 2.39323 16.2528 2.19774 15.4579 2.09087C14.6395 1.98085 13.555 1.97913 12 1.97913C10.4449 1.97913 9.36038 1.98085 8.54209 2.09087C7.74716 2.19774 7.32621 2.39323 7.02639 2.69305C6.66292 3.05652 6.46314 3.58472 6.37436 4.69066ZM4.69064 17.6256C4.68745 17.2388 4.68745 16.8283 4.68746 16.3928V13.0166C4.51998 13.0844 4.36011 13.1528 4.20776 13.2212C3.7984 13.405 3.31754 13.2222 3.13374 12.8128C2.94994 12.4034 3.1328 11.9226 3.54216 11.7388C5.4074 10.9012 8.18717 10.1041 12 10.1041C15.8128 10.1041 18.5925 10.9012 20.4578 11.7388C20.8671 11.9226 21.05 12.4034 20.8662 12.8128C20.6823 13.2222 20.2015 13.405 19.7922 13.2212C19.6398 13.1528 19.4799 13.0844 19.3125 13.0166V16.3928C19.3125 16.8283 19.3125 17.2388 19.3093 17.6256C20.4152 17.5368 20.9434 17.337 21.3069 16.9735C21.6067 16.6737 21.8022 16.2528 21.9091 15.4579C22.0191 14.6395 22.0208 13.555 22.0208 12C22.0208 10.4449 22.0191 9.36038 21.9091 8.54209C21.8022 7.74717 21.6067 7.32621 21.3069 7.02639C21.007 6.72656 20.5861 6.53108 19.7912 6.42421C18.9728 6.31418 17.8883 6.31246 16.3333 6.31246H7.66663C6.11159 6.31246 5.02705 6.31418 4.20876 6.42421C3.41384 6.53108 2.99288 6.72656 2.69305 7.02639C2.39323 7.32621 2.19774 7.74717 2.09087 8.54209C1.98085 9.36038 1.97913 10.4449 1.97913 12C1.97913 13.555 1.98085 14.6395 2.09087 15.4579C2.19774 16.2528 2.39323 16.6737 2.69305 16.9735C3.05652 17.337 3.58472 17.5368 4.69064 17.6256ZM17.6875 12.4623C16.1958 12.0407 14.3118 11.7291 12 11.7291C9.68808 11.7291 7.80414 12.0407 6.31246 12.4623V16.3333C6.31246 17.8883 6.31418 18.9728 6.42421 19.7912C6.53108 20.5861 6.72656 21.007 7.02639 21.3069C7.32621 21.6067 7.74717 21.8022 8.54209 21.9091C9.36038 22.0191 10.4449 22.0208 12 22.0208C13.555 22.0208 14.6395 22.0191 15.4579 21.9091C16.2528 21.8022 16.6737 21.6067 16.9735 21.3069C17.2734 21.007 17.4688 20.5861 17.5758 19.7912C17.6857 18.9728 17.6875 17.8883 17.6875 16.3333V12.4623Z" fill="white"/>
</svg>
