<svg width="26" height="26" viewBox="0 0 26 26" fill="none" xmlns="http://www.w3.org/2000/svg">
<path d="M20.457 8.39749C20.9047 8.42744 21.2437 8.81505 21.2139 9.26272L20.7109 16.794C20.6183 18.1834 20.5436 19.3059 20.3682 20.1865C20.1857 21.1021 19.8761 21.8673 19.2354 22.4668C18.5946 23.0662 17.8104 23.3253 16.8848 23.4463C15.9942 23.5629 14.8683 23.5626 13.4756 23.5625H12.5234C11.1309 23.5626 10.0057 23.5629 9.11523 23.4463C8.18955 23.3253 7.40545 23.0662 6.76465 22.4668C6.12394 21.8673 5.81425 21.1021 5.63184 20.1865C5.45638 19.3058 5.3807 18.1834 5.28809 16.794L4.78613 9.26272C4.75629 8.81503 5.09532 8.42742 5.54297 8.39749C5.99069 8.36764 6.37832 8.70661 6.4082 9.15432L6.90625 16.6289C7.00358 18.0888 7.07333 19.1047 7.22559 19.8692C7.37329 20.6104 7.57885 21.0032 7.875 21.2803C8.17116 21.5574 8.57668 21.7369 9.32617 21.835C10.099 21.9361 11.1177 21.9375 12.5811 21.9375H13.4189C14.8823 21.9375 15.901 21.9361 16.6738 21.835C17.4233 21.7369 17.8289 21.5574 18.125 21.2803C18.4211 21.0032 18.6267 20.6104 18.7744 19.8692C18.9267 19.1047 18.9965 18.0888 19.0938 16.6289L19.5918 9.15432C19.6216 8.70661 20.0093 8.36764 20.457 8.39749ZM14.832 2.43752C15.0662 2.43737 15.2702 2.43707 15.4629 2.4678C16.2248 2.58945 16.8848 3.06475 17.2412 3.74905C17.3313 3.92226 17.3957 4.11645 17.4697 4.33889L17.5908 4.7012C17.6113 4.76261 17.6172 4.78028 17.6221 4.79397C17.8118 5.31825 18.3031 5.67321 18.8604 5.68752H22.209C22.6575 5.68777 23.0214 6.05147 23.0215 6.50002C23.0215 6.9486 22.6575 7.31227 22.209 7.31252H3.79199C3.34326 7.31252 2.97949 6.94875 2.97949 6.50002C2.97953 6.05132 3.34329 5.68752 3.79199 5.68752H7.13965C7.69713 5.67333 8.18922 5.31839 8.37891 4.79397C8.38389 4.78021 8.38967 4.76265 8.41016 4.7012L8.53125 4.33889C8.60523 4.11646 8.66957 3.92226 8.75977 3.74905C9.11616 3.06488 9.77532 2.58944 10.5371 2.4678C10.7299 2.43702 10.9346 2.43737 11.1689 2.43752H14.832ZM11.2188 4.06252C10.9064 4.06252 10.8412 4.06459 10.793 4.07229C10.5391 4.11291 10.3199 4.27198 10.2012 4.50002C10.1786 4.54333 10.1553 4.60347 10.0566 4.89944L9.94824 5.22463C9.93204 5.27326 9.91912 5.31109 9.90625 5.3467C9.86371 5.46429 9.81458 5.5781 9.75879 5.68752H16.2412C16.1854 5.57813 16.1363 5.46425 16.0938 5.3467L16.0518 5.22366L15.9434 4.89944C15.845 4.60405 15.8223 4.54331 15.7998 4.50002C15.681 4.27191 15.461 4.11285 15.207 4.07229C15.1588 4.0646 15.0941 4.06253 14.7822 4.06252H11.2188Z" fill="#BFBFBF"/>
<path d="M20.457 8.39749L20.4637 8.29771L20.4637 8.29771L20.457 8.39749ZM21.2139 9.26272L21.3136 9.26938L21.3136 9.26936L21.2139 9.26272ZM20.7109 16.794L20.6112 16.7873L20.6112 16.7873L20.7109 16.794ZM20.3682 20.1865L20.2701 20.167V20.167L20.3682 20.1865ZM19.2354 22.4668L19.3037 22.5399L19.3037 22.5398L19.2354 22.4668ZM16.8848 23.4463L16.8718 23.3472H16.8718L16.8848 23.4463ZM13.4756 23.5625L13.4756 23.4625H13.4756V23.5625ZM12.5234 23.5625V23.4625H12.5234L12.5234 23.5625ZM9.11523 23.4463L9.12821 23.3472L9.1282 23.3472L9.11523 23.4463ZM6.76465 22.4668L6.69632 22.5398L6.69633 22.5399L6.76465 22.4668ZM5.63184 20.1865L5.53376 20.2061L5.53376 20.2061L5.63184 20.1865ZM5.28809 16.794L5.18831 16.8006L5.28809 16.794ZM4.78613 9.26272L4.88591 9.25607L4.88591 9.25607L4.78613 9.26272ZM5.54297 8.39749L5.53632 8.29771L5.5363 8.29771L5.54297 8.39749ZM6.4082 9.15432L6.50798 9.14767L6.50798 9.14766L6.4082 9.15432ZM6.90625 16.6289L6.80647 16.6356L6.80647 16.6356L6.90625 16.6289ZM7.22559 19.8692L7.12751 19.8887L7.12751 19.8887L7.22559 19.8692ZM7.875 21.2803L7.80668 21.3533L7.80668 21.3533L7.875 21.2803ZM9.32617 21.835L9.3132 21.9341H9.3132L9.32617 21.835ZM12.5811 21.9375V22.0375V21.9375ZM13.4189 21.9375V22.0375V21.9375ZM16.6738 21.835L16.6868 21.9341H16.6868L16.6738 21.835ZM18.125 21.2803L18.1933 21.3533L18.1933 21.3533L18.125 21.2803ZM18.7744 19.8692L18.8725 19.8887L18.8725 19.8887L18.7744 19.8692ZM19.0938 16.6289L18.994 16.6223V16.6223L19.0938 16.6289ZM19.5918 9.15432L19.6916 9.16097V9.16097L19.5918 9.15432ZM14.832 2.43752V2.53752L14.8321 2.53752L14.832 2.43752ZM15.4629 2.4678L15.4787 2.36905L15.4786 2.36905L15.4629 2.4678ZM17.2412 3.74905L17.3299 3.70289L17.3299 3.70285L17.2412 3.74905ZM17.4697 4.33889L17.3748 4.37045L17.3749 4.37059L17.4697 4.33889ZM17.5908 4.7012L17.6857 4.66957L17.6857 4.6695L17.5908 4.7012ZM17.6221 4.79397L17.5279 4.82751L17.528 4.828L17.6221 4.79397ZM18.8604 5.68752L18.8578 5.78752H18.8604V5.68752ZM22.209 5.68752L22.209 5.58752H22.209V5.68752ZM23.0215 6.50002H23.1215V6.50002L23.0215 6.50002ZM22.209 7.31252V7.41252H22.209L22.209 7.31252ZM2.97949 6.50002L2.87949 6.50002V6.50002H2.97949ZM7.13965 5.68752V5.78756L7.14219 5.78749L7.13965 5.68752ZM8.37891 4.79397L8.28487 4.75994L8.28487 4.75996L8.37891 4.79397ZM8.41016 4.7012L8.31531 4.6695L8.31529 4.66957L8.41016 4.7012ZM8.53125 4.33889L8.62609 4.37059L8.62614 4.37045L8.53125 4.33889ZM8.75977 3.74905L8.67108 3.70285L8.67107 3.70286L8.75977 3.74905ZM10.5371 2.4678L10.5213 2.36905L10.5213 2.36905L10.5371 2.4678ZM11.1689 2.43752L11.1689 2.53752H11.1689V2.43752ZM10.793 4.07229L10.7772 3.97354L10.7772 3.97355L10.793 4.07229ZM10.2012 4.50002L10.1125 4.45384L10.1125 4.45385L10.2012 4.50002ZM10.0566 4.89944L9.96177 4.86782V4.86782L10.0566 4.89944ZM9.94824 5.22463L9.85337 5.19301L9.85337 5.19302L9.94824 5.22463ZM9.90625 5.3467L10.0003 5.38072L10.0003 5.3807L9.90625 5.3467ZM9.75879 5.68752L9.6697 5.6421L9.59555 5.78752H9.75879V5.68752ZM16.2412 5.68752V5.78752H16.4044L16.3303 5.64211L16.2412 5.68752ZM16.0938 5.3467L15.9991 5.37901L15.9997 5.38075L16.0938 5.3467ZM16.0518 5.22366L15.9569 5.25537L15.9571 5.25596L16.0518 5.22366ZM15.9434 4.89944L15.8485 4.93104L15.8485 4.93115L15.9434 4.89944ZM15.7998 4.50002L15.8885 4.45393L15.8885 4.45382L15.7998 4.50002ZM15.207 4.07229L15.2228 3.97354L15.2228 3.97354L15.207 4.07229ZM14.7822 4.06252V3.96252V4.06252ZM20.457 8.39749L20.4504 8.49726C20.8429 8.52353 21.1402 8.86348 21.1141 9.25608L21.2139 9.26272L21.3136 9.26936C21.3471 8.76662 20.9665 8.33135 20.4637 8.29771L20.457 8.39749ZM21.2139 9.26272L21.1141 9.25606L20.6112 16.7873L20.7109 16.794L20.8107 16.8006L21.3136 9.26938L21.2139 9.26272ZM20.7109 16.794L20.6112 16.7873C20.5184 18.1792 20.444 19.2942 20.2701 20.167L20.3682 20.1865L20.4662 20.2061C20.6433 19.3176 20.7183 18.1875 20.8107 16.8006L20.7109 16.794ZM20.3682 20.1865L20.2701 20.167C20.0898 21.072 19.7865 21.8141 19.167 22.3938L19.2354 22.4668L19.3037 22.5398C19.9656 21.9204 20.2817 21.1323 20.4662 20.2061L20.3682 20.1865ZM19.2354 22.4668L19.167 22.3938C18.5475 22.9734 17.7866 23.2275 16.8718 23.3472L16.8848 23.4463L16.8977 23.5455C17.8342 23.423 18.6417 23.1591 19.3037 22.5399L19.2354 22.4668ZM16.8848 23.4463L16.8718 23.3472C15.9891 23.4627 14.8709 23.4626 13.4756 23.4625L13.4756 23.5625L13.4756 23.6625C14.8658 23.6626 15.9992 23.6631 16.8977 23.5455L16.8848 23.4463ZM13.4756 23.5625V23.4625H12.5234V23.5625V23.6625H13.4756V23.5625ZM12.5234 23.5625L12.5234 23.4625C11.1284 23.4626 10.0107 23.4627 9.12821 23.3472L9.11523 23.4463L9.10226 23.5455C10.0006 23.6631 11.1334 23.6626 12.5234 23.6625L12.5234 23.5625ZM9.11523 23.4463L9.1282 23.3472C8.21335 23.2275 7.45254 22.9734 6.83296 22.3938L6.76465 22.4668L6.69633 22.5399C7.35835 23.1591 8.16575 23.423 9.10227 23.5455L9.11523 23.4463ZM6.76465 22.4668L6.83298 22.3938C6.21352 21.8141 5.91021 21.072 5.72991 20.167L5.63184 20.1865L5.53376 20.2061C5.7183 21.1323 6.03436 21.9204 6.69632 22.5398L6.76465 22.4668ZM5.63184 20.1865L5.72991 20.167C5.55602 19.2941 5.48064 18.1792 5.38786 16.7873L5.28809 16.794L5.18831 16.8006C5.28076 18.1876 5.35675 19.3175 5.53376 20.2061L5.63184 20.1865ZM5.28809 16.794L5.38786 16.7873L4.88591 9.25607L4.78613 9.26272L4.68635 9.26937L5.18831 16.8006L5.28809 16.794ZM4.78613 9.26272L4.88591 9.25607C4.85974 8.86347 5.1571 8.52351 5.54964 8.49726L5.54297 8.39749L5.5363 8.29771C5.03354 8.33132 4.65284 8.7666 4.68635 9.26937L4.78613 9.26272ZM5.54297 8.39749L5.54962 8.49726C5.94227 8.47109 6.28223 8.76841 6.30843 9.16098L6.4082 9.15432L6.50798 9.14766C6.47442 8.64482 6.03911 8.26419 5.53632 8.29771L5.54297 8.39749ZM6.4082 9.15432L6.30842 9.16097L6.80647 16.6356L6.90625 16.6289L7.00603 16.6223L6.50798 9.14767L6.4082 9.15432ZM6.90625 16.6289L6.80647 16.6356C6.90362 18.0927 6.97368 19.1164 7.12751 19.8887L7.22559 19.8692L7.32366 19.8496C7.17298 19.0931 7.10354 18.0849 7.00603 16.6223L6.90625 16.6289ZM7.22559 19.8692L7.12751 19.8887C7.27734 20.6406 7.4893 21.0564 7.80668 21.3533L7.875 21.2803L7.94332 21.2073C7.66841 20.9501 7.46924 20.5802 7.32366 19.8496L7.22559 19.8692ZM7.875 21.2803L7.80668 21.3533C8.12403 21.6502 8.55284 21.8347 9.3132 21.9341L9.32617 21.835L9.33914 21.7358C8.60053 21.6392 8.21828 21.4645 7.94332 21.2073L7.875 21.2803ZM9.32617 21.835L9.3132 21.9341C10.0941 22.0363 11.1205 22.0375 12.5811 22.0375V21.9375V21.8375C11.1149 21.8375 10.104 21.8359 9.33914 21.7358L9.32617 21.835ZM12.5811 21.9375V22.0375H13.4189V21.9375V21.8375H12.5811V21.9375ZM13.4189 21.9375V22.0375C14.8795 22.0375 15.9059 22.0363 16.6868 21.9341L16.6738 21.835L16.6609 21.7358C15.896 21.8359 14.8851 21.8375 13.4189 21.8375V21.9375ZM16.6738 21.835L16.6868 21.9341C17.4471 21.8347 17.876 21.6502 18.1933 21.3533L18.125 21.2803L18.0567 21.2073C17.7817 21.4645 17.3994 21.6392 16.6609 21.7358L16.6738 21.835ZM18.125 21.2803L18.1933 21.3533C18.5107 21.0564 18.7226 20.6406 18.8725 19.8887L18.7744 19.8692L18.6763 19.8496C18.5307 20.5802 18.3316 20.9501 18.0567 21.2073L18.125 21.2803ZM18.7744 19.8692L18.8725 19.8887C19.0264 19.1164 19.0964 18.0927 19.1935 16.6356L19.0938 16.6289L18.994 16.6223C18.8965 18.0849 18.8271 19.0931 18.6763 19.8496L18.7744 19.8692ZM19.0938 16.6289L19.1935 16.6356L19.6916 9.16097L19.5918 9.15432L19.492 9.14767L18.994 16.6223L19.0938 16.6289ZM19.5918 9.15432L19.6916 9.16097C19.7177 8.76842 20.0577 8.47109 20.4504 8.49726L20.457 8.39749L20.4637 8.29771C19.9609 8.26419 19.5255 8.64481 19.492 9.14767L19.5918 9.15432ZM14.832 2.43752L14.8321 2.53752C15.0682 2.53737 15.2639 2.53732 15.4471 2.56655L15.4629 2.4678L15.4786 2.36905C15.2766 2.33683 15.0642 2.33737 14.832 2.33752L14.832 2.43752ZM15.4629 2.4678L15.4471 2.56655C16.1778 2.68322 16.8107 3.13904 17.1525 3.79524L17.2412 3.74905L17.3299 3.70285C16.9588 2.99046 16.2718 2.49569 15.4787 2.36905L15.4629 2.4678ZM17.2412 3.74905L17.1525 3.79521C17.2383 3.96001 17.3002 4.14612 17.3748 4.37045L17.4697 4.33889L17.5646 4.30733C17.4913 4.08678 17.4244 3.88451 17.3299 3.70289L17.2412 3.74905ZM17.4697 4.33889L17.3749 4.37059L17.496 4.7329L17.5908 4.7012L17.6857 4.6695L17.5646 4.30719L17.4697 4.33889ZM17.5908 4.7012L17.496 4.73282C17.5162 4.79359 17.5226 4.81259 17.5279 4.82751L17.6221 4.79397L17.7163 4.76043C17.7118 4.74796 17.7064 4.73163 17.6857 4.66957L17.5908 4.7012ZM17.6221 4.79397L17.528 4.828C17.7318 5.39089 18.2592 5.77212 18.8578 5.78749L18.8604 5.68752L18.8629 5.58756C18.3469 5.5743 17.8919 5.24561 17.7161 4.75993L17.6221 4.79397ZM18.8604 5.68752V5.78752H22.209V5.68752V5.58752H18.8604V5.68752ZM22.209 5.68752L22.2089 5.78752C22.6023 5.78774 22.9215 6.10675 22.9215 6.50003L23.0215 6.50002L23.1215 6.50002C23.1214 5.99619 22.7127 5.58781 22.209 5.58752L22.209 5.68752ZM23.0215 6.50002H22.9215C22.9215 6.89331 22.6023 7.2123 22.2089 7.21252L22.209 7.31252L22.209 7.41252C22.7127 7.41224 23.1215 7.00388 23.1215 6.50002H23.0215ZM22.209 7.31252V7.21252H3.79199V7.31252V7.41252H22.209V7.31252ZM3.79199 7.31252V7.21252C3.39849 7.21252 3.07949 6.89352 3.07949 6.50002H2.97949H2.87949C2.87949 7.00398 3.28804 7.41252 3.79199 7.41252V7.31252ZM2.97949 6.50002L3.07949 6.50003C3.07952 6.10654 3.39852 5.78752 3.79199 5.78752V5.68752V5.58752C3.28805 5.58752 2.87953 5.99609 2.87949 6.50002L2.97949 6.50002ZM3.79199 5.68752V5.78752H7.13965V5.68752V5.58752H3.79199V5.68752ZM7.13965 5.68752L7.14219 5.78749C7.74087 5.77225 8.26926 5.3911 8.47294 4.82798L8.37891 4.79397L8.28487 4.75996C8.10918 5.24567 7.65339 5.57441 7.1371 5.58756L7.13965 5.68752ZM8.37891 4.79397L8.47294 4.828C8.47849 4.81266 8.48491 4.79318 8.50502 4.73282L8.41016 4.7012L8.31529 4.66957C8.29444 4.73213 8.28928 4.74776 8.28487 4.75994L8.37891 4.79397ZM8.41016 4.7012L8.505 4.7329L8.62609 4.37059L8.53125 4.33889L8.43641 4.30719L8.31531 4.6695L8.41016 4.7012ZM8.53125 4.33889L8.62614 4.37045C8.70076 4.1461 8.76266 3.96001 8.84846 3.79523L8.75977 3.74905L8.67107 3.70286C8.57648 3.88451 8.5097 4.08683 8.43636 4.30733L8.53125 4.33889ZM8.75977 3.74905L8.84845 3.79525C9.19024 3.13912 9.82237 2.68319 10.5529 2.56655L10.5371 2.4678L10.5213 2.36905C9.72826 2.49568 9.04207 2.99065 8.67108 3.70285L8.75977 3.74905ZM10.5371 2.4678L10.5529 2.56655C10.7363 2.53726 10.9325 2.53737 11.1689 2.53752L11.1689 2.43752L11.169 2.33752C10.9366 2.33737 10.7236 2.33677 10.5213 2.36905L10.5371 2.4678ZM11.1689 2.43752V2.53752H14.832V2.43752V2.33752H11.1689V2.43752ZM11.2188 4.06252V3.96252C10.9111 3.96252 10.8354 3.96425 10.7772 3.97354L10.793 4.07229L10.8087 4.17104C10.847 4.16493 10.9018 4.16252 11.2188 4.16252V4.06252ZM10.793 4.07229L10.7772 3.97355C10.4918 4.01921 10.2457 4.19796 10.1125 4.45384L10.2012 4.50002L10.2899 4.54621C10.3941 4.34601 10.5864 4.20661 10.8088 4.17103L10.793 4.07229ZM10.2012 4.50002L10.1125 4.45385C10.0854 4.50592 10.0593 4.57532 9.96177 4.86782L10.0566 4.89944L10.1515 4.93106C10.2513 4.63161 10.2719 4.58074 10.2899 4.5462L10.2012 4.50002ZM10.0566 4.89944L9.96177 4.86782L9.85337 5.19301L9.94824 5.22463L10.0431 5.25626L10.1515 4.93106L10.0566 4.89944ZM9.94824 5.22463L9.85337 5.19302C9.83727 5.24135 9.82466 5.27827 9.81221 5.3127L9.90625 5.3467L10.0003 5.3807C10.0136 5.34392 10.0268 5.30516 10.0431 5.25624L9.94824 5.22463ZM9.90625 5.3467L9.81221 5.31269C9.77103 5.42652 9.72354 5.53651 9.6697 5.6421L9.75879 5.68752L9.84788 5.73295C9.90563 5.61969 9.95639 5.50206 10.0003 5.38072L9.90625 5.3467ZM9.75879 5.68752V5.78752H16.2412V5.68752V5.58752H9.75879V5.68752ZM16.2412 5.68752L16.3303 5.64211C16.2765 5.53655 16.229 5.42648 16.1878 5.31266L16.0938 5.3467L15.9997 5.38075C16.0436 5.50202 16.0944 5.61971 16.1521 5.73294L16.2412 5.68752ZM16.0938 5.3467L16.1884 5.31441L16.1464 5.19136L16.0518 5.22366L15.9571 5.25596L15.9991 5.379L16.0938 5.3467ZM16.0518 5.22366L16.1466 5.19195L16.0382 4.86773L15.9434 4.89944L15.8485 4.93115L15.9569 5.25537L16.0518 5.22366ZM15.9434 4.89944L16.0382 4.86784C15.9412 4.57658 15.9156 4.50608 15.8885 4.45393L15.7998 4.50002L15.7111 4.54612C15.7289 4.58054 15.7487 4.63153 15.8485 4.93104L15.9434 4.89944ZM15.7998 4.50002L15.8885 4.45382C15.7551 4.19775 15.5081 4.01911 15.2228 3.97354L15.207 4.07229L15.1913 4.17104C15.4138 4.20659 15.6068 4.34606 15.7111 4.54623L15.7998 4.50002ZM15.207 4.07229L15.2228 3.97354C15.1647 3.96426 15.0895 3.96253 14.7822 3.96252V4.06252V4.16252C15.0987 4.16253 15.153 4.16494 15.1913 4.17104L15.207 4.07229ZM14.7822 4.06252V3.96252H11.2188V4.06252V4.16252H14.7822V4.06252Z" fill="#BFBFBF"/>
</svg>
