<svg width="42" height="37" viewBox="0 0 42 37" fill="none" xmlns="http://www.w3.org/2000/svg">
<path d="M41 17.25C41.4142 17.25 41.75 17.5858 41.75 18C41.75 18.4142 41.4142 18.75 41 18.75V17.25ZM0.469669 18.5303C0.176777 18.2374 0.176777 17.7626 0.469669 17.4697L5.24264 12.6967C5.53553 12.4038 6.01041 12.4038 6.3033 12.6967C6.5962 12.9896 6.5962 13.4645 6.3033 13.7574L2.06066 18L6.3033 22.2426C6.5962 22.5355 6.5962 23.0104 6.3033 23.3033C6.01041 23.5962 5.53553 23.5962 5.24264 23.3033L0.469669 18.5303ZM41 18V18.75H1V18V17.25H41V18Z" fill="#BFBFBF"/>
</svg>
