<svg width="24" height="24" viewBox="0 0 24 24" fill="none" xmlns="http://www.w3.org/2000/svg">
<path fill-rule="evenodd" clip-rule="evenodd" d="M12 0.354126C11.3449 0.354126 10.7416 0.51694 10.0812 0.790081C9.44338 1.05383 8.70265 1.44256 7.78027 1.92662L5.54046 3.10201C4.40841 3.69607 3.50247 4.17148 2.80297 4.63861C2.07829 5.12257 1.52014 5.63214 1.11367 6.3224C0.708571 7.01035 0.526333 7.75528 0.43894 8.6424C0.354115 9.5035 0.354115 10.5625 0.354126 11.8944V12.1055C0.354115 13.4373 0.354115 14.4964 0.43894 15.3575C0.526333 16.2447 0.708571 16.9896 1.11367 17.6775C1.52014 18.3678 2.07829 18.8774 2.80297 19.3613C3.50247 19.8284 4.4084 20.3038 5.54044 20.8979L7.78017 22.0732C8.70259 22.5574 9.44336 22.9461 10.0812 23.2099C10.7416 23.483 11.3449 23.6458 12 23.6458C12.6551 23.6458 13.2584 23.483 13.9188 23.2099C14.5565 22.9461 15.2973 22.5574 16.2196 22.0733L18.4594 20.8979C19.5915 20.3038 20.4974 19.8284 21.1969 19.3613C21.9217 18.8774 22.4798 18.3678 22.8863 17.6775C23.2913 16.9896 23.4735 16.2447 23.561 15.3575C23.6458 14.4964 23.6458 13.4374 23.6458 12.1056V11.8943C23.6458 10.5625 23.6458 9.50349 23.561 8.6424C23.4735 7.75528 23.2913 7.01035 22.8863 6.3224C22.4798 5.63214 21.9217 5.12257 21.1969 4.63861C20.4974 4.17148 19.5915 3.69607 18.4594 3.102L16.2196 1.92663C15.2973 1.44257 14.5565 1.05384 13.9188 0.790081C13.2584 0.51694 12.6551 0.354126 12 0.354126ZM8.50166 3.38321C9.46552 2.87739 10.141 2.52383 10.7021 2.29173C11.2483 2.06584 11.6322 1.97913 12 1.97913C12.3678 1.97913 12.7516 2.06584 13.2978 2.29173C13.859 2.52383 14.5344 2.87739 15.4983 3.38321L17.6649 4.52023C18.8454 5.13973 19.6748 5.57614 20.2945 5.98997C20.6002 6.19414 20.8404 6.38372 21.0344 6.57434L17.4262 8.37846L8.21799 3.53207L8.50166 3.38321ZM6.52334 4.42138L6.33499 4.52023C5.15449 5.13972 4.32512 5.57614 3.70544 5.98997C3.39971 6.19414 3.15948 6.38372 2.96554 6.57434L12 11.0916L15.6369 9.27309L6.74654 4.59396C6.66017 4.5485 6.58536 4.48967 6.52334 4.42138ZM2.18245 7.99961C2.12774 8.23131 2.08639 8.49443 2.05611 8.80172C1.98004 9.57394 1.97913 10.5531 1.97913 11.9366V12.0633C1.97913 13.4469 1.98004 14.426 2.05611 15.1982C2.13051 15.9535 2.27186 16.4418 2.51394 16.853C2.75465 17.2617 3.10284 17.6075 3.70544 18.01C4.32512 18.4238 5.15449 18.8602 6.33499 19.4797L8.50166 20.6167C9.46552 21.1225 10.141 21.4761 10.7021 21.7081C10.8794 21.7815 11.0395 21.8401 11.1875 21.8859V12.5021L2.18245 7.99961ZM12.8125 21.8859C12.9604 21.8401 13.1206 21.7815 13.2978 21.7081C13.859 21.4761 14.5344 21.1225 15.4983 20.6167L17.6649 19.4797C18.8454 18.8602 19.6748 18.4238 20.2945 18.01C20.897 17.6075 21.2452 17.2617 21.4859 16.853C21.7281 16.4418 21.8694 15.9535 21.9438 15.1982C22.0199 14.426 22.0208 13.4469 22.0208 12.0633V11.9366C22.0208 10.5531 22.0199 9.57394 21.9438 8.80172C21.9135 8.49442 21.8722 8.23131 21.8174 7.9996L18.2291 9.79377V13.0833C18.2291 13.532 17.8653 13.8958 17.4166 13.8958C16.9679 13.8958 16.6041 13.532 16.6041 13.0833V10.6062L12.8125 12.5021V21.8859Z" fill="#CECECE"/>
</svg>
