<svg width="12" height="12" viewBox="0 0 12 12" fill="none" xmlns="http://www.w3.org/2000/svg">
<path d="M1.05021 1.05025C1.44074 0.659728 2.0739 0.659728 2.46442 1.05025L5.99996 4.58579L9.53549 1.05025C9.92602 0.659728 10.5592 0.659728 10.9497 1.05025C11.3402 1.44078 11.3402 2.07394 10.9497 2.46447L7.41417 6L10.9497 9.53553C11.3402 9.92606 11.3402 10.5592 10.9497 10.9497C10.5592 11.3403 9.92602 11.3403 9.53549 10.9497L5.99996 7.41421L2.46442 10.9497C2.0739 11.3403 1.44074 11.3403 1.05021 10.9497C0.659687 10.5592 0.659687 9.92606 1.05021 9.53553L4.58575 6L1.05021 2.46447C0.659687 2.07394 0.659687 1.44078 1.05021 1.05025Z" fill="#BFBFBF"/>
</svg>
