<svg width="24" height="18" viewBox="0 0 24 18" fill="none" xmlns="http://www.w3.org/2000/svg">
<path d="M2.25008 5.20837C2.25008 5.50753 2.00757 5.75004 1.70841 5.75004C1.40926 5.75004 1.16675 5.50753 1.16675 5.20837V3.04171C1.16675 1.54594 2.37931 0.333374 3.87508 0.333374H6.04175C6.3409 0.333374 6.58341 0.575886 6.58341 0.875041C6.58341 1.17419 6.3409 1.41671 6.04175 1.41671H3.87508C2.97762 1.41671 2.25008 2.14424 2.25008 3.04171V5.20837ZM17.9584 1.41671C17.6593 1.41671 17.4167 1.17419 17.4167 0.875041C17.4167 0.575886 17.6593 0.333374 17.9584 0.333374H20.1251C21.6209 0.333374 22.8334 1.54594 22.8334 3.04171V5.20837C22.8334 5.50753 22.5909 5.75004 22.2917 5.75004C21.9926 5.75004 21.7501 5.50753 21.7501 5.20837V3.04171C21.7501 2.14424 21.0225 1.41671 20.1251 1.41671H17.9584ZM6.04175 16.5834C6.3409 16.5834 6.58341 16.8259 6.58341 17.125C6.58341 17.4242 6.3409 17.6667 6.04175 17.6667H3.87508C2.37931 17.6667 1.16675 16.4541 1.16675 14.9584V12.7917C1.16675 12.4926 1.40926 12.25 1.70841 12.25C2.00757 12.25 2.25008 12.4926 2.25008 12.7917V14.9584C2.25008 15.8558 2.97762 16.5834 3.87508 16.5834H6.04175ZM21.7501 12.7917C21.7501 12.4926 21.9926 12.25 22.2917 12.25C22.5909 12.25 22.8334 12.4926 22.8334 12.7917V14.9584C22.8334 16.4541 21.6209 17.6667 20.1251 17.6667H17.9584C17.6593 17.6667 17.4167 17.4242 17.4167 17.125C17.4167 16.8259 17.6593 16.5834 17.9584 16.5834H20.1251C21.0225 16.5834 21.7501 15.8558 21.7501 14.9584V12.7917ZM4.41675 4.12504C4.41675 3.82589 4.65926 3.58337 4.95841 3.58337C5.25757 3.58337 5.50008 3.82589 5.50008 4.12504V13.875C5.50008 14.1742 5.25757 14.4167 4.95841 14.4167C4.65926 14.4167 4.41675 14.1742 4.41675 13.875V4.12504ZM7.66675 4.12504C7.66675 3.82589 7.90926 3.58337 8.20841 3.58337C8.50757 3.58337 8.75008 3.82589 8.75008 4.12504V13.875C8.75008 14.1742 8.50757 14.4167 8.20841 14.4167C7.90926 14.4167 7.66675 14.1742 7.66675 13.875V4.12504ZM9.83341 4.12504C9.83341 3.82589 10.0759 3.58337 10.3751 3.58337C10.6742 3.58337 10.9167 3.82589 10.9167 4.12504V13.875C10.9167 14.1742 10.6742 14.4167 10.3751 14.4167C10.0759 14.4167 9.83341 14.1742 9.83341 13.875V4.12504ZM12.0001 4.12504C12.0001 3.82589 12.2426 3.58337 12.5417 3.58337C12.8409 3.58337 13.0834 3.82589 13.0834 4.12504V13.875C13.0834 14.1742 12.8409 14.4167 12.5417 14.4167C12.2426 14.4167 12.0001 14.1742 12.0001 13.875V4.12504ZM16.3334 4.12504C16.3334 3.82589 16.5759 3.58337 16.8751 3.58337C17.1742 3.58337 17.4167 3.82589 17.4167 4.12504V13.875C17.4167 14.1742 17.1742 14.4167 16.8751 14.4167C16.5759 14.4167 16.3334 14.1742 16.3334 13.875V4.12504ZM18.5001 4.12504C18.5001 3.82589 18.7426 3.58337 19.0417 3.58337C19.3409 3.58337 19.5834 3.82589 19.5834 4.12504V13.875C19.5834 14.1742 19.3409 14.4167 19.0417 14.4167C18.7426 14.4167 18.5001 14.1742 18.5001 13.875V4.12504Z" fill="#BFBFBF" stroke="#BFBFBF" stroke-width="0.4"/>
</svg>
